<svg id="Layer_1" data-name="Layer 1" xmlns="http://www.w3.org/2000/svg" viewBox="0 0 512 512"><title>train</title><path d="M144,384a48,48,0,1,0-48-48A48,48,0,0,0,144,384Zm0-64a16,16,0,1,1-16,16A16,16,0,0,1,144,320Zm224,64a48,48,0,1,0-48-48A48,48,0,0,0,368,384Zm0-64a16,16,0,1,1-16,16A16,16,0,0,1,368,320ZM352,0H160C96,0,32,43,32,96V352c0,47.17,50.66,86.39,106.9,94.47L83.62,501.76A6,6,0,0,0,87.86,512h25.8a12,12,0,0,0,8.48-3.51L182.63,448H329.37l60.49,60.48a12,12,0,0,0,8.48,3.52h25.8a6,6,0,0,0,4.24-10.24L373.1,446.47C429.34,438.39,480,399.17,480,352V96C480,43,417,0,352,0ZM64,128H240v96H64ZM448,352c0,32.3-47.55,64-96,64H160c-48.45,0-96-31.7-96-64V256H448Zm0-128H272V128H448ZM64,96c0-32.3,47.55-64,96-64H352c58.24,0,96,37.88,96,64Z"/></svg>