<svg id="Layer_1" data-name="Layer 1" xmlns="http://www.w3.org/2000/svg" viewBox="0 0 512 512"><title>unknown</title><path d="M488,128h-8V80c0-44.8-99.2-80-224-80S32,35.2,32,80v48H24A24,24,0,0,0,0,152v80a24,24,0,0,0,24,24h8V416a32,32,0,0,0,32,32v32a32,32,0,0,0,32,32h48a32,32,0,0,0,32-32V448H336v32a32,32,0,0,0,32,32h48a32,32,0,0,0,32-32V448a32,32,0,0,0,32-32V256h8a24,24,0,0,0,24-24V152A24,24,0,0,0,488,128ZM144,480H96V448h48Zm272,0H368V448h48ZM448,96h0v32h0l0,128h0v32h0V416H64V288h0V256h0V128h0V96h0V80.31C67.31,67,131.41,32,256,32S444.69,67,448,80.31ZM254.48,308a28,28,0,1,0,28,28A28,28,0,0,0,254.48,308Zm-.33-224c-44.82,0-70,17.51-91.23,44.74a12,12,0,0,0,2.64,17.18l13.14,9.15a12,12,0,0,0,16.24-2.38C209.89,133.65,225,124,254.15,124c39.68,0,57.44,20.2,57.44,40.21,0,43.79-77.44,37.07-77.44,107.41V272a12,12,0,0,0,12,12h16a12,12,0,0,0,12-12v-.38c0-43.56,77.44-40,77.44-107.41C351.59,113.75,306.47,84,254.15,84Z"/></svg>