<svg id="Layer_1" data-name="Layer 1" xmlns="http://www.w3.org/2000/svg" viewBox="0 0 512 512"><title>bus</title><path d="M128,384a32,32,0,1,0-32-32A32,32,0,0,0,128,384Zm256,0a32,32,0,1,0-32-32A32,32,0,0,0,384,384ZM488,128h-8V80c0-44.8-99.2-80-224-80S32,35.2,32,80v48H24A24,24,0,0,0,0,152v80a24,24,0,0,0,24,24h8V416a32,32,0,0,0,32,32v32a32,32,0,0,0,32,32h48a32,32,0,0,0,32-32V448H336v32a32,32,0,0,0,32,32h48a32,32,0,0,0,32-32V448a32,32,0,0,0,32-32V256h8a24,24,0,0,0,24-24V152A24,24,0,0,0,488,128ZM144,480H96V448h48Zm272,0H368V448h48Zm32-64H64V288H448Zm0-160H64V128H448Zm0-160H64V80.31C67.31,67,131.41,32,256,32S444.69,67,448,80.31Z"/></svg>