<svg id="Layer_1" data-name="Layer 1" xmlns="http://www.w3.org/2000/svg" viewBox="0 0 512 512"><title>metro</title><path d="M258,320a16,16,0,1,1-16,16,16,16,0,0,1,16-16m0-32a48,48,0,1,0,48,48A48,48,0,0,0,258,288ZM354,0H162C98,0,34,43,34,96V352c0,47.17,50.66,86.39,106.9,94.47L85.62,501.76A6,6,0,0,0,89.86,512h25.8a12,12,0,0,0,8.48-3.51L184.63,448H331.37l60.49,60.48a12,12,0,0,0,8.48,3.52h25.8a6,6,0,0,0,4.24-10.24L375.1,446.47C431.34,438.39,482,399.17,482,352V96C482,43,419,0,354,0ZM66,128H450v96H66Zm96-96H354c58.24,0,96,37.88,96,64H66C66,63.7,113.55,32,162,32ZM354,416H162c-48.45,0-96-31.7-96-64V256H450v96C450,384.3,402.45,416,354,416Z"/></svg>