<svg id="Layer_1" data-name="Layer 1" xmlns="http://www.w3.org/2000/svg" viewBox="0 0 512 512"><title>tram</title><path d="M384,384a32,32,0,1,0-32-32A32,32,0,0,0,384,384Zm-256,0a32,32,0,1,0-32-32A32,32,0,0,0,128,384ZM488,128H475.65c-12.55-22.73-51.43-41.74-105-53l24.58-24.59c23.07,7.28,38.61,15.47,46.61,22.09A8,8,0,0,0,452.69,72l11-11.22a8,8,0,0,0-.45-11.63C429.82,20.06,350.21,0,256,0S82.18,20.06,48.79,49.16a8,8,0,0,0-.45,11.63L59.31,72a8,8,0,0,0,10.89.51c8-6.62,23.54-14.81,46.61-22.09L141.39,75c-53.61,11.24-92.49,30.25-105,53H24A24,24,0,0,0,0,152v80a24,24,0,0,0,24,24h8V416a32,32,0,0,0,32,32h73.37L83.62,501.76A6,6,0,0,0,87.86,512h25.8a12,12,0,0,0,8.48-3.51L182.63,448H329.37l60.49,60.48a12,12,0,0,0,8.48,3.52h25.8a6,6,0,0,0,4.24-10.24L374.63,448H448a32,32,0,0,0,32-32V256h8a24,24,0,0,0,24-24V152A24,24,0,0,0,488,128ZM256,32c40.87,0,75.24,3.77,103.08,9.3L331.79,68.58a629.38,629.38,0,0,0-151.58,0L152.92,41.3C180.76,35.77,215.13,32,256,32ZM448,416H64V288H448Zm0-160H64V160h0V144.21C67.62,130.83,131.7,96,256,96s188.38,34.83,192,48.21V160h0Z"/></svg>