<svg id="Layer_1" xmlns="http://www.w3.org/2000/svg" viewBox="0 0 512 512"><title>tram</title><path d="M352,384a32,32,0,1,0-32-32A32,32,0,0,0,352,384ZM456,128H445c-9.24-23.77-39.56-43.48-89.25-54.49l26.77-26.77a257.81,257.81,0,0,1,33.11,11.12,8.16,8.16,0,0,0,8.95-1.75l11.86-11.87a8.17,8.17,0,0,0-2.27-13.16C393.42,12.07,329.1,0,256,0S118.59,12.07,77.85,31.08a8.16,8.16,0,0,0-2.28,13.16L87.44,56.11a8.16,8.16,0,0,0,9,1.76,256.5,256.5,0,0,1,33.1-11.13l26.77,26.77c-49.69,11-80,30.72-89.25,54.49H56a24,24,0,0,0-24,24v80a24,24,0,0,0,24,24h8V416a32,32,0,0,0,32,32h41.37L83.62,501.76A6,6,0,0,0,87.86,512h25.8a12,12,0,0,0,8.48-3.51L182.63,448H329.37l60.49,60.48a12,12,0,0,0,8.48,3.52h25.8a6,6,0,0,0,4.24-10.24L374.63,448H416a32,32,0,0,0,32-32V256h8a24,24,0,0,0,24-24V152A24,24,0,0,0,456,128ZM256,32a551.75,551.75,0,0,1,89.21,6.79L316.83,67.17A547.06,547.06,0,0,0,256,64a547.06,547.06,0,0,0-60.83,3.17L166.79,38.79A551.75,551.75,0,0,1,256,32Zm0,64c87.19,0,129.08,17.14,147.52,32h-295C126.92,113.14,168.81,96,256,96ZM416,416H96V288H416Zm0-160H96V160H416ZM160,384a32,32,0,1,0-32-32A32,32,0,0,0,160,384Z"/></svg>