<svg id="Layer_1" data-name="Layer 1" xmlns="http://www.w3.org/2000/svg" viewBox="0 0 512 512"><title>trolleybus</title><path d="M128,384a32,32,0,1,0-32-32A32,32,0,0,0,128,384Zm256,0a32,32,0,1,0-32-32A32,32,0,0,0,384,384ZM488,160h-8V128C480,92.28,417,62.67,328.13,52.13L370,10.24A6,6,0,0,0,365.77,0H340a12,12,0,0,0-8.48,3.51L286.3,48.7Q271.45,48,256,48c-19.76,0-38.88.88-57.07,2.55l40.3-40.31A6,6,0,0,0,235,0h-25.8a12,12,0,0,0-8.48,3.51L146.19,58C77.75,71.58,32,97.58,32,128v32H24A24,24,0,0,0,0,184v48a24,24,0,0,0,24,24h8V416a32,32,0,0,0,32,32v32a32,32,0,0,0,32,32h48a32,32,0,0,0,32-32V448H336v32a32,32,0,0,0,32,32h48a32,32,0,0,0,32-32V448a32,32,0,0,0,32-32V256h8a24,24,0,0,0,24-24V184A24,24,0,0,0,488,160ZM256,80c123.65,0,187.72,34.47,191.94,48H64.06C68.28,114.47,132.35,80,256,80ZM144,480H96V448h48Zm272,0H368V448h48Zm32-64H64V288H448Zm0-160H64V160H448Z"/></svg>